<svg xmlns="http://www.w3.org/2000/svg" viewBox="0 0 144.98 144.98"><defs><style>.cls-1,.cls-2{fill:none;stroke:#0e0e24;stroke-linecap:round;stroke-linejoin:round;stroke-width:3.98px;}.cls-2{opacity:0;}</style></defs><g id="Layer_2" data-name="Layer 2"><g id="candidates"><path class="cls-1" d="M51.42,92.19C51.48,89.3,52,79.76,56,75.73a7.55,7.55,0,0,0-1.69-2.24l-.09-.09-.11-.07a9.16,9.16,0,0,0-2.34-1.21,32.48,32.48,0,0,0-6.56-1.41l0-.1a11,11,0,0,0,6.57-10.18,10.72,10.72,0,1,0-21.44,0,11,11,0,0,0,6.58,10.18l0,.1a33.56,33.56,0,0,0-6.66,1.43A10.09,10.09,0,0,0,28,73.27l-.09.07-.09.07C24.36,76.34,23.93,84,23.89,86.22v.1l.23,3a4,4,0,0,0,4,3.53H51.46l0-.55Z"/><path class="cls-1" d="M121.09,86.15c-.07-2.85-.58-9.8-3.84-12.66l-.09-.09-.11-.07a9.16,9.16,0,0,0-2.34-1.21,32.48,32.48,0,0,0-6.56-1.41l0-.1a11.05,11.05,0,0,0,6.58-10.18,10.73,10.73,0,1,0-21.45,0,11,11,0,0,0,6.58,10.18v.1a33.52,33.52,0,0,0-6.67,1.43A10.09,10.09,0,0,0,91,73.27l-.09.07-.09.07A7.69,7.69,0,0,0,89,75.73c3.82,3.87,4.43,12.7,4.52,16.37v.13l0,.64h23.32a4,4,0,0,0,4-3.56l.22-3.06Z"/><path class="cls-1" d="M93.56,92.1c-.09-3.67-.7-12.5-4.52-16.37l-.21-.23-.12-.11-.12-.09a11.34,11.34,0,0,0-2.89-1.59,38.76,38.76,0,0,0-8.08-1.85l0-.13A14.54,14.54,0,0,0,85.69,58.4c0-8-5.92-14.47-13.2-14.47S59.28,50.42,59.28,58.4a14.52,14.52,0,0,0,8.11,13.34l0,.12a39.34,39.34,0,0,0-8.21,1.88,11.55,11.55,0,0,0-2.68,1.48l-.12.09-.11.1c-.11.1-.2.21-.3.32-4,4-4.47,13.57-4.53,16.46v.13l0,.55.23,3.4a5,5,0,0,0,5,4.63H88.32a5,5,0,0,0,5-4.66l.23-3.37,0-.64Z"/><path class="cls-2" d="M72.49,2A70.5,70.5,0,1,0,143,72.49,70.49,70.49,0,0,0,72.49,2Z"/></g></g></svg>