<svg xmlns="http://www.w3.org/2000/svg" width="749.5" height="472.475" viewBox="0 0 749.5 472.475">
  <g id="Group_49226" data-name="Group 49226" transform="translate(-330 -381.965)" opacity="0.2">
    <path id="Path_2" data-name="Path 2" d="M633.784,236.249q0-111.3,0-222.6c0-1.622-.066-3.25.06-4.863A9.121,9.121,0,0,1,642.723.077c2.318-.125,4.646-.054,6.97-.054Q735.468.02,821.244,0a370.741,370.741,0,0,1,44.443,2.647c17.867,2.139,35.447,5.807,52.329,12.254,12.518,4.78,24.353,10.886,34.858,19.318a90.506,90.506,0,0,1,22.884,27.261,122.913,122.913,0,0,1,12.828,37.134,186.356,186.356,0,0,1,2.952,41.122c-.609,16.121-3.746,31.756-11.124,46.3a90.806,90.806,0,0,1-27.083,32.243c-3.482,2.59-7.188,4.876-10.794,7.3-.5.338-1.04.629-1.531.984-2.318,1.666-2.381,2.783-.041,4.343,3.111,2.073,6.357,3.938,9.469,6.008a101.608,101.608,0,0,1,43.623,60.323,136.493,136.493,0,0,1,4.076,22.388,178.575,178.575,0,0,1-.713,41.86c-3.489,25.187-12.987,47.56-31.335,65.617-8.868,8.728-19.138,15.513-30.065,21.342a179.551,179.551,0,0,1-33.6,13.709,226.662,226.662,0,0,1-27.4,6.292,330.307,330.307,0,0,1-54.615,3.991q-87.443-.136-174.886.042c-7.605.021-11.826-3.875-11.812-11.805Q633.907,348.46,633.784,236.249Z" transform="translate(80.471 381.965)" fill="#0e0e24"/>
    <path id="Path_3" data-name="Path 3" d="M268.49,472.41q-41.373,0-82.746,0a257.6,257.6,0,0,1-36.851-2.63c-21.711-3.132-42.562-9.267-62.135-19.4-17.4-9-32.948-20.47-46.035-35.143A154.476,154.476,0,0,1,7.105,354.375a192.606,192.606,0,0,1-5.547-27.328A203.12,203.12,0,0,1,.051,299.775Q-.035,233.785.044,167.8c.033-21.03,3.223-41.564,10.609-61.316a154.5,154.5,0,0,1,26.91-45.863C51.142,44.533,67.525,32.041,86.073,22.349A181.743,181.743,0,0,1,119.791,8.922,216.076,216.076,0,0,1,167.73.771c7.155-.409,14.327-.7,21.492-.711Q275.3-.024,361.381.032c1.616,0,3.239-.048,4.848.069a8.815,8.815,0,0,1,8.532,8.917c.07,2.126.019,4.256.02,6.385q.007,52,.013,104c0,5.643-1.654,8.071-7,9.939-2.572.9-5.227,1.552-7.82,2.39-2.108.681-4.193,1.439-6.267,2.223-4.063,1.538-5.862,4.37-5.845,8.865.105,29.5.052,58.995.052,88.493q0,48.351,0,96.7c0,6.5,2.029,9.117,8.474,10.536,3.842.846,7.75,1.389,11.616,2.127a21.715,21.715,0,0,1,3.773,1.04,4.385,4.385,0,0,1,3,4.469c-.014,1.216.018,2.433.019,3.649q0,55.8,0,111.6c0,.811.01,1.623-.042,2.432a8.8,8.8,0,0,1-8.061,8.429,37.035,37.035,0,0,1-3.936.1q-47.132.006-94.264,0Z" transform="translate(330 381.956)" fill="#0e0e24"/>
  </g>
</svg>
