<svg xmlns="http://www.w3.org/2000/svg" viewBox="0 0 144.98 144.98"><defs><style>.cls-1,.cls-2,.cls-3,.cls-4{fill:none;}.cls-1,.cls-2,.cls-4{stroke:#0e0e24;stroke-width:3.98px;}.cls-1{stroke-miterlimit:10;}.cls-2,.cls-4{stroke-linejoin:round;}.cls-4{stroke-linecap:round;opacity:0;}</style></defs><g id="Layer_2" data-name="Layer 2"><g id="integration_automation" data-name="integration automation"><path class="cls-1" d="M66.16,66.16a9,9,0,1,0,12.73-.07A9,9,0,0,0,66.16,66.16Z"/><path class="cls-1" d="M77.66,90.46l7.91,7.91a9.05,9.05,0,0,0,12.8-12.8l-7.91-7.91a18.72,18.72,0,0,1-12.8,12.8Z"/><path class="cls-1" d="M67.32,54.52l-7.91-7.91a9.05,9.05,0,0,0-12.8,12.8l7.91,7.92a18.71,18.71,0,0,1,12.8-12.81Z"/><path class="cls-1" d="M85.78,59.2a18.78,18.78,0,0,0-31.26,8.13L66,78.82l.07.07a9.05,9.05,0,0,1,12.8-12.8.46.46,0,0,1,.07.07l11.5,11.5,7.91,7.91a9.05,9.05,0,0,1-12.8,12.8l-7.91-7.91A18.81,18.81,0,0,1,59.22,85.8l.05,0,19.41,19.41a18.79,18.79,0,0,0,26.58-26.58L85.85,59.27Z"/><path class="cls-1" d="M39.72,39.72a18.81,18.81,0,0,0,0,26.58L59.13,85.71l.09.09a18.78,18.78,0,0,0,31.24-8.14L79,66.16a.46.46,0,0,0-.07-.07,9.05,9.05,0,0,1-12.8,12.8L66,78.82,54.52,67.33l-7.91-7.92a9.05,9.05,0,0,1,12.8-12.8l7.91,7.91A18.81,18.81,0,0,1,85.78,59.2l-.07-.07L66.3,39.72A18.81,18.81,0,0,0,39.72,39.72Z"/><path class="cls-2" d="M59.27,85.85l-.05,0-.09-.09L39.72,66.3c-.19-.2-.36-.4-.54-.6l-.23,0H30.66V79.27H39a5.49,5.49,0,0,1,4.88,3.64l1.23,2.94A5.34,5.34,0,0,1,44,91.42l-5.86,5.86,9.58,9.59L53.57,101a5.42,5.42,0,0,1,3.73-1.4,4.67,4.67,0,0,1,2.1.46l.1,0,3,1.22a5.2,5.2,0,0,1,3.2,4.71v8.28H79.27V106c0-.07,0-.15,0-.23-.2-.18-.41-.35-.61-.55Z"/><path class="cls-2" d="M106,65.72a5.39,5.39,0,0,1-4.79-3.47l0-.1-1.27-3A5.37,5.37,0,0,1,101,53.57l5.87-5.87-9.58-9.58L91.42,44a5.4,5.4,0,0,1-3.74,1.4,4.67,4.67,0,0,1-2.1-.45l-3.12-1.28A5.34,5.34,0,0,1,79.27,39V30.66H65.72V39c0,.07,0,.15,0,.23l.6.54L85.71,59.13l.07.07.07.07,19.41,19.41c.19.2.36.41.55.61l.22,0h8.29V65.72Z"/><path class="cls-3" d="M57.24,45.42a6.07,6.07,0,0,0,.63,0A8.92,8.92,0,0,0,53.58,44,5.17,5.17,0,0,0,57.24,45.42Z"/><path class="cls-3" d="M44,53.57a9,9,0,0,0,1.37,4.28A5.5,5.5,0,0,0,44,53.57Z"/><path class="cls-3" d="M87.75,99.57a6.26,6.26,0,0,0-.63,0A9,9,0,0,0,91.41,101,5.22,5.22,0,0,0,87.75,99.57Z"/><path class="cls-3" d="M101,91.41a9,9,0,0,0-1.37-4.27A5.45,5.45,0,0,0,101,91.41Z"/><path class="cls-4" d="M72.49,2A70.5,70.5,0,1,0,143,72.49,70.49,70.49,0,0,0,72.49,2Z"/></g></g></svg>