<?xml version="1.0" encoding="utf-8"?>
<!-- Generator: Adobe Illustrator 25.1.0, SVG Export Plug-In . SVG Version: 6.00 Build 0)  -->
<svg version="1.1" id="Layer_1" xmlns="http://www.w3.org/2000/svg" xmlns:xlink="http://www.w3.org/1999/xlink" x="0px" y="0px"
	 viewBox="0 0 600 74.9" style="enable-background:new 0 0 600 74.9;" xml:space="preserve">
<style type="text/css">
	.st0{fill:#0E0E24;}
</style>
<g id="Layer_2_1_">
	<g id="Layer_1-2">
		<path class="st0" d="M117.5,43.5c-1.5-2.8-3.8-5.1-7.1-6.8c-0.3-0.2-0.3-0.4,0-0.6c5.4-3.1,8.1-8,8.1-14.8
			c0-7.6-2.3-13.1-6.9-16.3C107.1,1.6,100.2,0,91.1,0H63.5c-0.4,0-0.9,0.1-1.2,0.4c-0.3,0.3-0.4,0.7-0.4,1.2v71.7
			c-0.1,0.8,0.5,1.5,1.3,1.6c0.1,0,0.2,0,0.2,0h28.6c8.2,0,14.9-1.7,20-5.2s7.7-8.9,7.7-16.2C119.8,49.6,119,46.2,117.5,43.5"/>
		<path class="st0" d="M47.5,37.5V23.9c0-0.9,0.3-1.6,1.5-1.9l7.8-1.4c0.6-0.1,1.1-0.3,1.1-1.4V1.5c0-0.8-0.7-1.5-1.5-1.5H28.6
			C23,0,18,1.2,13.8,3.3C9.5,5.5,6,8.7,3.6,12.8C1.2,16.9,0,21.6,0,27v21C0,53.3,1.2,58,3.6,62.1c2.4,4.1,5.9,7.4,10.2,9.5
			c4.3,2.2,9.2,3.3,14.8,3.3h27.8c0.8,0,1.5-0.7,1.5-1.5V55.7c0-1.2-0.5-1.3-1.1-1.4L49,52.9c-1.2-0.3-1.5-1-1.5-1.9L47.5,37.5z"/>
		<path class="st0" d="M575.2,26.5c-3,0-5.5,1.2-7.3,3.7c0,0.1-0.1,0.2-0.2,0.1c-0.1-0.1-0.2-0.2-0.1-0.3v-2.3
			c0-0.5-0.4-0.8-0.8-0.8c0,0,0,0,0,0h-10c-0.5,0-0.8,0.4-0.8,0.8c0,0,0,0,0,0v34.8c0,0.5,0.4,0.8,0.8,0.8c0,0,0,0,0,0h10
			c0.5,0,0.8-0.4,0.8-0.8c0,0,0,0,0,0V44c-0.1-1.4,0.5-2.8,1.5-3.7c1-0.9,2.3-1.5,3.7-1.7c0.6-0.1,1.2-0.2,1.8-0.1
			c0.8,0,1.6,0.1,2.4,0.3c0.6,0.2,0.9,0.1,1-0.5l1.6-9.8c0.1-0.4-0.1-0.8-0.4-1.1C578.2,26.8,576.9,26.5,575.2,26.5 M534.2,36.4
			c1.2,0,2.3,0.3,3.3,0.9c0.9,0.7,1.5,1.6,1.8,2.7c0.2,0.5,0.3,0.9,0.3,1.4c0,0.1-0.1,0.3-0.2,0.3c0,0,0,0-0.1,0h-10
			c-0.3,0-0.4-0.1-0.3-0.4c0.1-0.5,0.2-1,0.4-1.5C530.1,37.6,531.7,36.4,534.2,36.4 M551.5,42c-0.4-2.9-1.4-5.6-3-8.1
			c-1.5-2.3-3.5-4.3-6-5.6c-2.6-1.4-5.4-2.1-8.3-2c-3.9,0-7.2,1-10,3s-4.8,4.7-6,8.2c-0.8,2.3-1.1,4.7-1.1,7.1
			c0,3.5,0.5,6.5,1.5,8.8c1.2,3.2,3.5,6,6.5,7.8c3,1.9,6.6,2.8,10.9,2.8c2.7,0,5.4-0.5,7.9-1.4c2.3-0.9,4.4-2.3,6.1-4.1
			c0.2-0.1,0.3-0.3,0.3-0.6c0-0.2-0.1-0.4-0.3-0.6l-5.4-6.2c-0.1-0.2-0.3-0.3-0.6-0.3c-0.3,0-0.5,0.1-0.6,0.4c-1.7,1.9-4,2.9-7,2.9
			c-1.4,0-2.9-0.3-4.2-0.9c-1.1-0.5-1.9-1.4-2.5-2.4c-0.3-0.7-0.5-1.3-0.7-2.1c0-0.1,0-0.2,0.1-0.2c0,0,0,0,0,0
			c0.1-0.1,0.2-0.1,0.3-0.1h21.5c0.5,0.1,0.9-0.3,0.9-0.7c0,0,0-0.1,0-0.1C551.8,45.7,551.7,43.9,551.5,42 M499.3,51.3
			c-1,1.8-2.4,2.8-4.3,2.8c-2,0-3.5-0.9-4.4-2.7c-0.8-1.6-1.3-3.6-1.3-6.1c0-2.6,0.5-4.7,1.4-6.3c0.8-1.6,2.5-2.6,4.3-2.5
			c1.8,0,3.2,0.8,4.2,2.5c0.9,1.5,1.3,3.6,1.3,6.3C500.5,47.8,500.1,49.8,499.3,51.3 M500.5,14.9v14.7c0,0.1,0,0.2-0.1,0.3
			c-0.1,0-0.2,0-0.3-0.1c-1.7-2.2-4.3-3.3-7.7-3.3c-3.4,0-6.3,0.9-8.7,2.7c-2.4,1.8-4.2,4.3-5.2,7.1c-1,2.8-1.5,5.9-1.5,8.9
			c0,2.8,0.4,5.5,1.1,8.2c1,3.3,2.8,6,5.3,7.9c2.4,1.9,5.4,2.9,8.5,2.9c3.5,0,6.2-1.3,8.1-3.9c0.1-0.1,0.2-0.1,0.3-0.1
			c0.1,0,0.1,0.1,0.1,0.2v2.3c0,0.5,0.4,0.8,0.8,0.8c0,0,0,0,0,0h10c0.5,0,0.8-0.4,0.8-0.8c0,0,0,0,0,0V14.9c0-0.5-0.4-0.8-0.8-0.8
			c0,0,0,0,0,0h-10C500.9,14,500.5,14.4,500.5,14.9C500.5,14.9,500.5,14.9,500.5,14.9 M461.8,63.5h10c0.5,0,0.8-0.4,0.8-0.8
			c0,0,0,0,0,0V14.9c0-0.5-0.4-0.8-0.8-0.8c0,0,0,0,0,0h-10c-0.5,0-0.8,0.4-0.8,0.8c0,0,0,0,0,0v47.8
			C461,63.1,461.3,63.5,461.8,63.5C461.8,63.5,461.8,63.5,461.8,63.5 M444.7,63.5h10c0.5,0,0.8-0.4,0.8-0.8c0,0,0,0,0,0V27.8
			c0-0.5-0.4-0.8-0.8-0.8c0,0,0,0,0,0h-10c-0.5,0-0.8,0.4-0.8,0.8c0,0,0,0,0,0v34.8C443.9,63.1,444.2,63.5,444.7,63.5
			C444.7,63.5,444.7,63.5,444.7,63.5 M449.8,23.7c1.7,0.1,3.3-0.6,4.4-1.8c1.1-1.2,1.8-2.7,1.7-4.4c0-1.8-0.6-3.3-1.7-4.4
			c-2.5-2.3-6.3-2.3-8.8,0c-1.2,1.1-1.7,2.6-1.7,4.4c-0.1,3.3,2.4,6,5.7,6.1C449.5,23.7,449.6,23.7,449.8,23.7 M426.8,27.8v21.8
			c-0.1,1.2-0.7,2.3-1.6,3.2c-0.9,0.8-2.1,1.2-3.3,1.2c-1.5,0-2.6-0.5-3.5-1.5c-0.8-1-1.3-2.3-1.3-4V27.8c0-0.5-0.4-0.8-0.8-0.8
			c0,0,0,0,0,0h-10c-0.5,0-0.8,0.4-0.9,0.8c0,0,0,0,0,0v23.4c0,4.1,1.1,7.2,3.3,9.5c2.2,2.3,5.1,3.4,8.7,3.4c4,0,7-1.3,8.9-4
			c0.1-0.1,0.2-0.2,0.3-0.1c0.1,0.1,0.2,0.2,0.1,0.3v2.5c0,0.5,0.4,0.8,0.8,0.8c0,0,0,0,0,0h10c0.5,0,0.8-0.4,0.8-0.8c0,0,0,0,0,0
			V27.8c0-0.5-0.4-0.8-0.8-0.8c0,0,0,0,0,0h-10C427.2,26.9,426.8,27.3,426.8,27.8C426.8,27.8,426.8,27.8,426.8,27.8 M383.1,53.4
			h-7.6c-0.2,0-0.3-0.1-0.4-0.3c0,0,0,0,0-0.1v-9.4c0-0.2,0.1-0.3,0.3-0.4c0,0,0,0,0.1,0h7.6c1.9,0,3.4,0.4,4.4,1.3
			c1,0.9,1.5,2.1,1.5,3.7c0,1.6-0.5,2.9-1.6,3.8C386.5,52.9,385,53.4,383.1,53.4 M375.6,24.1h7c1.9,0,3.4,0.4,4.4,1.3
			c1,0.8,1.6,2,1.6,3.6c0,1.5-0.5,2.7-1.6,3.5c-1,0.8-2.5,1.2-4.4,1.2h-7c-0.2,0-0.3-0.1-0.4-0.3c0,0,0,0,0-0.1v-8.9
			C375.2,24.2,375.3,24.1,375.6,24.1C375.5,24.1,375.5,24.1,375.6,24.1 M394.3,37.8c3.8-2,5.6-5.3,5.7-10c0-4.9-1.5-8.4-4.4-10.5
			c-2.9-2.2-7.3-3.3-13-3.3h-18.2c-0.5,0-0.8,0.4-0.8,0.8c0,0,0,0,0,0v47.8c0,0.5,0.4,0.8,0.8,0.8c0,0,0,0,0,0h18.8
			c5.3,0,9.5-1.2,12.8-3.5c3.2-2.3,4.9-5.8,4.9-10.5c0-5.3-2.1-9-6.4-11.3C394.1,38,394.1,37.9,394.3,37.8 M355.6,26.5
			c-3,0-5.5,1.2-7.3,3.7c0,0.1-0.1,0.2-0.2,0.1c-0.1-0.1-0.2-0.2-0.1-0.3v-2.3c0-0.5-0.4-0.8-0.8-0.8c0,0,0,0,0,0h-10
			c-0.5,0-0.8,0.4-0.8,0.8c0,0,0,0,0,0v34.8c0,0.5,0.4,0.8,0.8,0.8c0,0,0,0,0,0h10c0.5,0,0.8-0.4,0.8-0.8c0,0,0,0,0,0V44
			c-0.1-1.4,0.5-2.8,1.5-3.7c1-0.9,2.3-1.5,3.7-1.7c0.6-0.1,1.2-0.2,1.8-0.1c0.8,0,1.6,0.1,2.4,0.3c0.6,0.2,0.9,0.1,1-0.5l1.6-9.8
			c0.1-0.4-0.1-0.8-0.4-1.1C358.6,26.8,357.3,26.5,355.6,26.5 M314.5,36.4c1.2,0,2.3,0.3,3.3,0.9c0.9,0.7,1.5,1.6,1.8,2.7
			c0.2,0.5,0.3,0.9,0.3,1.4c0,0.1-0.1,0.3-0.2,0.3c0,0,0,0-0.1,0h-10c-0.3,0-0.4-0.1-0.3-0.4c0.1-0.5,0.2-1,0.4-1.5
			C310.4,37.6,312.1,36.4,314.5,36.4 M331.8,42c-0.4-2.9-1.4-5.6-3-8.1c-1.5-2.3-3.5-4.3-6-5.6c-2.6-1.4-5.4-2.1-8.3-2
			c-3.9,0-7.2,1-10,3s-4.8,4.7-6,8.2c-0.8,2.3-1.1,4.7-1.1,7.1c0,3.5,0.5,6.5,1.5,8.8c1.2,3.2,3.5,6,6.5,7.8c3,1.9,6.6,2.8,10.9,2.8
			c2.7,0,5.4-0.5,7.9-1.4c2.3-0.9,4.4-2.3,6.1-4.1c0.2-0.1,0.3-0.3,0.3-0.6c0-0.2-0.1-0.4-0.3-0.6l-5.4-6.2
			c-0.1-0.2-0.3-0.3-0.6-0.3c-0.3,0-0.5,0.1-0.6,0.4c-1.7,1.9-4,2.9-7,2.9c-1.4,0-2.9-0.3-4.2-0.9c-1.1-0.5-1.9-1.4-2.5-2.4
			c-0.3-0.7-0.5-1.3-0.7-2.1c0-0.1,0-0.2,0.1-0.2c0,0,0,0,0,0c0.1-0.1,0.2-0.1,0.3-0.1h21.5c0.5,0.1,0.9-0.3,0.9-0.7
			c0,0,0-0.1,0-0.1C332.1,45.7,332.1,43.8,331.8,42 M276.4,36.4c1.2,0,2.3,0.3,3.3,0.9c0.9,0.7,1.5,1.6,1.8,2.7
			c0.2,0.5,0.3,0.9,0.3,1.4c0,0.1-0.1,0.3-0.2,0.3c0,0,0,0-0.1,0h-10c-0.3,0-0.4-0.1-0.3-0.4c0.1-0.5,0.2-1,0.4-1.5
			C272.3,37.6,273.9,36.4,276.4,36.4 M293.7,42c-0.4-2.9-1.4-5.6-3-8.1c-1.5-2.3-3.5-4.3-6-5.6c-2.6-1.4-5.4-2.1-8.3-2
			c-3.9,0-7.2,1-10,3c-2.8,2-4.8,4.7-6,8.2c-0.8,2.3-1.1,4.7-1.1,7.1c0,3.5,0.5,6.5,1.5,8.8c1.2,3.2,3.5,6,6.5,7.8
			c3,1.9,6.6,2.8,10.9,2.8c2.7,0,5.4-0.5,7.9-1.4c2.3-0.9,4.4-2.3,6.1-4.1c0.2-0.1,0.3-0.3,0.3-0.6c0-0.2-0.1-0.4-0.3-0.6l-5.5-6.2
			c-0.1-0.2-0.3-0.3-0.6-0.3c-0.3,0-0.5,0.1-0.6,0.4c-1.7,1.9-4,2.9-7,2.9c-1.4,0-2.9-0.3-4.2-0.9c-1.1-0.5-1.9-1.4-2.5-2.4
			c-0.3-0.7-0.5-1.3-0.7-2.1c0-0.1,0-0.2,0.1-0.2c0,0,0,0,0,0c0.1-0.1,0.2-0.1,0.3-0.1H293c0.5,0.1,0.9-0.3,0.9-0.7c0,0,0-0.1,0-0.1
			C294,45.7,293.9,43.8,293.7,42 M253.5,26.4c-3,0-5.5,1.2-7.3,3.7c0,0.1-0.1,0.2-0.2,0.1c-0.1-0.1-0.2-0.2-0.1-0.3v-2.2
			c0-0.5-0.4-0.8-0.8-0.8c0,0,0,0,0,0h-10c-0.5,0-0.8,0.4-0.8,0.8c0,0,0,0,0,0v34.8c0,0.5,0.4,0.8,0.8,0.8c0,0,0,0,0,0h10
			c0.5,0,0.8-0.4,0.8-0.8c0,0,0,0,0,0V44c0-1.6,0.5-2.8,1.5-3.7c1-0.9,2.3-1.5,3.7-1.7c0.6-0.1,1.2-0.2,1.8-0.1
			c0.8,0,1.6,0.1,2.4,0.3c0.6,0.2,0.9,0.1,1-0.5l1.6-9.8c0.1-0.4-0.1-0.8-0.4-1.1C256.6,26.8,255.2,26.5,253.5,26.4 M211.2,55.6
			c-1.3,0-2.3-0.3-3-0.9c-0.7-0.6-1.1-1.5-1.1-2.5c-0.1-1.1,0.5-2.2,1.4-2.8c1-0.6,2.3-0.9,4.1-0.9h4.2c0.2,0,0.3,0.1,0.4,0.3
			c0,0,0,0.1,0,0.1v1.7c0,1.4-0.6,2.8-1.7,3.6C214.4,55.2,212.9,55.6,211.2,55.6 M212.3,26.4c-2.8,0-5.5,0.5-8.1,1.4
			c-2.4,1-4.3,2.3-5.8,4c-1.4,1.6-2.2,3.5-2.4,5.6c0,0.3,0.3,0.5,0.8,0.6l10.2,1.3c0.4,0,0.8-0.2,1-0.7c0.3-0.7,0.9-1.3,1.6-1.6
			c0.9-0.4,1.9-0.7,2.9-0.6c1.5,0,2.7,0.4,3.5,1.1c0.9,0.8,1.3,1.9,1.3,3v1.3c0,0.2-0.1,0.3-0.3,0.4c0,0-0.1,0-0.1,0h-6.8
			c-4.8,0-8.5,1-11,3c-2.5,2-3.8,4.8-3.8,8.4c0,3.4,1.1,6,3.4,7.8c2.2,1.8,5.2,2.6,9,2.6c4.3,0,7.4-1.3,9.2-4
			c0.1-0.2,0.2-0.3,0.3-0.2c0.1,0,0.1,0.1,0.1,0.3v2.5c0,0.2,0.1,0.4,0.2,0.6c0.2,0.2,0.4,0.3,0.6,0.2h10c0.5,0,0.8-0.4,0.8-0.8
			c0,0,0,0,0,0V38.5c0-2.3-0.8-4.4-2.2-6.2c-1.5-1.9-3.5-3.3-6-4.4C218.1,26.9,215.2,26.3,212.3,26.4 M173.4,64
			c3.8,0,7.1-0.7,9.9-2.1c2.7-1.3,5-3.3,6.6-5.9c1.6-2.5,2.4-5.5,2.4-8.8c0-0.2-0.1-0.4-0.2-0.5c-0.2-0.1-0.4-0.2-0.6-0.2l-10-0.5
			c-0.6,0-0.8,0.3-0.8,0.8c0,2.2-0.7,3.9-2,5.2s-3.1,2-5.2,2c-2.2,0-3.9-0.7-5.2-2s-2-3.1-2-5.2v-16c0-2.2,0.7-3.9,2-5.3
			c1.3-1.3,3.1-2,5.2-2c2.2,0,3.9,0.7,5.2,2c1.3,1.3,2,3.1,2,5.3c0,0.5,0.3,0.8,0.8,0.8l10-0.6c0.2,0,0.4-0.1,0.6-0.2
			c0.2-0.1,0.3-0.3,0.2-0.6c0-3.3-0.8-6.2-2.4-8.7c-1.6-2.5-3.9-4.6-6.6-5.8c-2.9-1.4-6.2-2.1-9.9-2.1c-3.8,0-7.1,0.7-9.9,2.2
			c-2.8,1.4-5.1,3.5-6.6,6.2c-1.6,2.7-2.4,5.7-2.4,9.2v15.3c0,3.5,0.8,6.6,2.4,9.3c1.6,2.7,3.9,4.8,6.6,6.2
			C166.3,63.3,169.7,64,173.4,64"/>
		<path class="st0" d="M594.8,4.4c1.6,0.9,2.9,2.1,3.8,3.7c0.9,1.6,1.4,3.4,1.4,5.2c0,1.9-0.4,3.8-1.4,5.4c-0.9,1.6-2.2,2.9-3.8,3.8
			c-1.6,0.9-3.5,1.4-5.4,1.4c-1.9,0-3.7-0.5-5.3-1.4c-1.6-0.9-2.9-2.2-3.8-3.8c-0.9-1.7-1.4-3.5-1.4-5.4c0-1.8,0.4-3.6,1.4-5.2
			c0.9-1.5,2.2-2.8,3.8-3.7c1.6-0.9,3.5-1.4,5.3-1.3C591.3,3,593.2,3.5,594.8,4.4z M594.8,18.7c1.4-1.4,2.2-3.4,2.1-5.4
			c0-2.6-1.4-5-3.7-6.3c-2.4-1.3-5.2-1.3-7.5,0c-1.1,0.6-2,1.5-2.7,2.6c-0.6,1.1-1,2.4-1,3.7c0,2.2,0.7,4,2.1,5.4
			C587.2,21.5,591.8,21.5,594.8,18.7L594.8,18.7z M591.9,14.1c-0.1,0-0.2,0.1-0.1,0.3l1.1,3c0,0.1,0.1,0.2,0.1,0.3
			c0,0.3-0.2,0.5-0.6,0.5h-1.3c-0.3,0-0.6-0.2-0.7-0.5l-1-2.9c-0.1-0.1-0.2-0.2-0.3-0.2h-0.1c-0.1,0-0.2,0.1-0.3,0.2c0,0,0,0,0,0.1
			v2.7c0,0.3-0.3,0.6-0.6,0.6c0,0,0,0,0,0H587c-0.3,0-0.6-0.3-0.6-0.6c0,0,0,0,0,0V9.2c0-0.3,0.3-0.6,0.6-0.6c0,0,0,0,0,0h3
			c0.8,0,1.6,0.3,2.2,0.9c0.6,0.6,0.9,1.4,0.9,2.2C593.1,12.8,592.7,13.6,591.9,14.1L591.9,14.1z M588.8,10.9v1.5
			c0,0.1,0.1,0.2,0.2,0.3c0,0,0,0,0.1,0h0.7c0.3,0,0.6-0.1,0.7-0.3c0.2-0.2,0.3-0.5,0.3-0.7c0-0.5-0.4-1-0.9-1c0,0-0.1,0-0.1,0h-0.7
			C588.9,10.6,588.8,10.7,588.8,10.9C588.8,10.9,588.8,10.9,588.8,10.9L588.8,10.9z"/>
	</g>
</g>
</svg>
