<svg xmlns="http://www.w3.org/2000/svg" viewBox="0 0 144.98 144.98"><defs><style>.cls-1{fill:#0e0e24;}.cls-2{fill:none;stroke:#0e0e24;stroke-linecap:round;stroke-linejoin:round;stroke-width:3.98px;opacity:0;}</style></defs><g id="Layer_2" data-name="Layer 2"><g id="page_view" data-name="page view"><path class="cls-1" d="M72.47,48.19h.07c20.32.05,37.95,18,43.57,24.4-5.64,6.35-23.27,24.2-43.6,24.2h-.07c-20.32-.05-37.94-18-43.57-24.4,5.65-6.35,23.32-24.2,43.6-24.2m0-4c-21.55,0-39.75,17.86-46.57,25.54a4,4,0,0,0,0,5.28c6.8,7.72,25,25.69,46.54,25.74h.08c21.61,0,39.77-17.86,46.58-25.54a4,4,0,0,0,0-5.27c-6.8-7.73-25-25.7-46.54-25.75Z"/><path class="cls-1" d="M72.49,61.57h0a10.92,10.92,0,0,1,0,21.84h0a10.92,10.92,0,0,1,0-21.84m0-4A14.9,14.9,0,1,0,87.38,72.52,14.92,14.92,0,0,0,72.49,57.59Z"/><path class="cls-2" d="M72.49,2A70.5,70.5,0,1,0,143,72.49,70.49,70.49,0,0,0,72.49,2Z"/></g></g></svg>