<svg xmlns="http://www.w3.org/2000/svg" viewBox="0 0 144.98 144.98"><defs><style>.cls-1,.cls-2,.cls-3{fill:none;stroke:#0e0e24;}.cls-1,.cls-2{stroke-miterlimit:10;}.cls-1{stroke-width:4.81px;}.cls-2,.cls-3{stroke-linecap:round;stroke-width:3.98px;}.cls-3{stroke-linejoin:round;opacity:0;}</style></defs><g id="Layer_2" data-name="Layer 2"><g id="quality_hit" data-name="quality hit"><circle class="cls-1" cx="72.46" cy="64.59" r="18.59"/><path class="cls-2" d="M50,85.88,40,104.15l11.44.48L58,114.07,68.19,95.26A30.94,30.94,0,0,1,50,85.88Z"/><path class="cls-2" d="M95,85.84a30.9,30.9,0,0,1-18.2,9.41L87,114.07l6.47-9.44,11.44-.48Z"/><path class="cls-2" d="M72.46,33.61a31,31,0,0,0-4.27,61.65,31.67,31.67,0,0,0,4.27.3,31,31,0,1,0,0-61.95Z"/><circle class="cls-1" cx="72.46" cy="64.59" r="6.4"/><polyline class="cls-2" points="113.42 47.41 105.76 45.36 107.92 37.26"/><line class="cls-2" x1="105.76" y1="45.36" x2="72.59" y2="64.51"/><path class="cls-3" d="M72.49,2A70.5,70.5,0,1,0,143,72.49,70.49,70.49,0,0,0,72.49,2Z"/></g></g></svg>